<?xml version="1.0" encoding="UTF-8" standalone="no"?>
<!-- Generator: Adobe Illustrator 16.0.0, SVG Export Plug-In . SVG Version: 6.00 Build 0)  -->

<svg
   xmlns:dc="http://purl.org/dc/elements/1.1/"
   xmlns:cc="http://creativecommons.org/ns#"
   xmlns:rdf="http://www.w3.org/1999/02/22-rdf-syntax-ns#"
   xmlns:svg="http://www.w3.org/2000/svg"
   xmlns="http://www.w3.org/2000/svg"
   xmlns:sodipodi="http://sodipodi.sourceforge.net/DTD/sodipodi-0.dtd"
   xmlns:inkscape="http://www.inkscape.org/namespaces/inkscape"
   version="1.1"
   id="Capa_1"
   x="0px"
   y="0px"
   width="213.86px"
   height="213.86px"
   viewBox="0 0 213.86 213.86"
   style="enable-background:new 0 0 213.86 213.86;"
   xml:space="preserve"
   sodipodi:docname="man-pushing-a-shopping-cart.svg"
   inkscape:version="0.92.3 (2405546, 2018-03-11)"><metadata
   id="metadata3847"><rdf:RDF><cc:Work
       rdf:about=""><dc:format>image/svg+xml</dc:format><dc:type
         rdf:resource="http://purl.org/dc/dcmitype/StillImage" /><dc:title></dc:title></cc:Work></rdf:RDF></metadata><defs
   id="defs3845" /><sodipodi:namedview
   pagecolor="#ffffff"
   bordercolor="#666666"
   borderopacity="1"
   objecttolerance="10"
   gridtolerance="10"
   guidetolerance="10"
   inkscape:pageopacity="0"
   inkscape:pageshadow="2"
   inkscape:window-width="2880"
   inkscape:window-height="1509"
   id="namedview3843"
   showgrid="false"
   inkscape:zoom="5.8589731"
   inkscape:cx="106.93"
   inkscape:cy="106.93"
   inkscape:window-x="0"
   inkscape:window-y="55"
   inkscape:window-maximized="1"
   inkscape:current-layer="Capa_1" />
<g
   id="g3810"
   transform="translate(1.0240702,0.51203512)">
	<g
   id="g3808">
		<path
   d="m 211.17518,112.08164 c -0.565,-0.92 -4.30085,-0.96596 -5.37885,-0.96796 L 113.703,110.943 l -9.562,-7.462 c 0.998,-3.988 -1.209,-8.104 -5.179,-9.331 L 75.723,86.946 59.177,62.403 c 0,-3.928 -1.82,-7.508 -4.786,-9.812 -1.498,-2.135 -3.842,-3.654 -6.637,-3.955 -3.422,-0.375 -6.622,1.224 -8.528,3.849 -2.576,1.957 -4.403,4.907 -4.832,8.366 l -6.235,49.885 c -0.393,3.148 0.466,6.145 2.131,8.574 l -9.578,39.677 -19.248,30.25 c -2.773,4.359 -1.489,10.139 2.868,12.909 1.559,0.999 3.294,1.461 5.015,1.461 3.093,0 6.116,-1.534 7.9,-4.335 l 20.082,-31.555 c 0.548,-0.864 0.962,-1.82 1.196,-2.825 l 6.293,-26.073 15.451,21.592 8.574,36.012 c 1.023,4.293 4.856,7.185 9.091,7.185 0.716,0 1.446,-0.085 2.177,-0.262 5.024,-1.188 8.129,-6.235 6.933,-11.259 l -8.997,-37.795 c -0.283,-1.176 -0.786,-2.296 -1.492,-3.271 l -24.46,-34.19 c 0.381,-0.956 0.679,-1.942 0.81,-3.002 l 3.461,-27.706 7.962,11.81 c 0.992,1.471 2.463,2.561 4.159,3.084 l 25.857,8.014 c 0.773,0.243 1.547,0.353 2.314,0.353 1.297,0 2.512,-0.401 3.635,-1.011 l 9.396,7.338 6.083,53.262 c 0.183,1.571 1.511,2.765 3.1,2.765 h 64.648 c 1.182,0 2.266,-0.67 2.789,-1.729 l 24.49915,-53.53493 c 0.476,-0.957 0.93303,-3.47343 0.36703,-4.39243 z m -6.50225,4.93768 -2.71393,7.66068 h -84.975 l -0.853,-7.49 z M 195.114,138.405 h -76.559 l -0.858,-7.496 79.96125,-0.51204 z m -6.856,13.731 H 120.12 l -0.853,-7.495 72.735,-1.02407 z m -6.667,13.378 h -59.942 l -0.815,-7.143 63.96664,-1.02407 z"
   id="path3800"
   inkscape:connector-curvature="0"
   sodipodi:nodetypes="csccccccccccccccsccccccsccccccccccscccssccccccccccccccccccccccc" />
		<path
   d="m 124.25753,171.99722 c -6.527,0 -11.84,5.315 -11.84,11.844 0,6.527 5.312,11.837 11.84,11.837 6.528,0 11.837,-5.31 11.837,-11.837 0,-6.528 -5.309,-11.844 -11.837,-11.844 z m 0,17.445 c -3.094,0 -5.608,-2.509 -5.608,-5.602 0,-3.094 2.515,-5.608 5.608,-5.608 3.093,0 5.602,2.515 5.602,5.608 0,3.094 -2.508,5.602 -5.602,5.602 z"
   id="path3802"
   inkscape:connector-curvature="0" />
		<path
   d="m 177.59318,172.50925 c -6.527,0 -11.844,5.315 -11.844,11.844 0,6.527 5.316,11.837 11.844,11.837 6.528,0 11.837,-5.31 11.837,-11.837 0,-6.528 -5.309,-11.844 -11.837,-11.844 z m 0,17.445 c -3.094,0 -5.608,-2.509 -5.608,-5.602 0,-3.094 2.515,-5.608 5.608,-5.608 3.093,0 5.602,2.515 5.602,5.608 0,3.094 -2.509,5.602 -5.602,5.602 z"
   id="path3804"
   inkscape:connector-curvature="0" />
		<circle
   cx="59.040001"
   cy="29.607"
   r="19.354"
   id="circle3806" />
	</g>
</g>
<g
   id="g3812">
</g>
<g
   id="g3814">
</g>
<g
   id="g3816">
</g>
<g
   id="g3818">
</g>
<g
   id="g3820">
</g>
<g
   id="g3822">
</g>
<g
   id="g3824">
</g>
<g
   id="g3826">
</g>
<g
   id="g3828">
</g>
<g
   id="g3830">
</g>
<g
   id="g3832">
</g>
<g
   id="g3834">
</g>
<g
   id="g3836">
</g>
<g
   id="g3838">
</g>
<g
   id="g3840">
</g>
</svg>